<?xml version="1.0" encoding="UTF-8" standalone="no"?>
<!-- Created with Inkscape (http://www.inkscape.org/) -->

<svg
   xmlns:dc="http://purl.org/dc/elements/1.1/"
   xmlns:cc="http://creativecommons.org/ns#"
   xmlns:rdf="http://www.w3.org/1999/02/22-rdf-syntax-ns#"
   xmlns:svg="http://www.w3.org/2000/svg"
   xmlns="http://www.w3.org/2000/svg"
   xmlns:sodipodi="http://sodipodi.sourceforge.net/DTD/sodipodi-0.dtd"
   xmlns:inkscape="http://www.inkscape.org/namespaces/inkscape"
   width="744.09448819"
   height="1052.3622047"
   id="svg2"
   version="1.1"
   inkscape:version="0.48.2 r9819"
   sodipodi:docname="art_design.svg">
  <defs
     id="defs4">
    <clipPath
       clipPathUnits="userSpaceOnUse"
       id="clipPath4080">
      <rect
         style="fill:#4e0bf6;fill-opacity:1;stroke:none"
         id="rect4082"
         width="329.30972"
         height="47.982235"
         x="147.48227"
         y="418.49146" />
    </clipPath>
    <clipPath
       clipPathUnits="userSpaceOnUse"
       id="clipPath4749">
      <path
         d="m 169.67632,477.56284 -15.23186,0 0,16.30832 15.23186,0 0,6.75324 -15.23186,0 0,23.13338 -6.78577,0 0,-52.94816 22.01763,0 0,6.75322 0,0"
         style="font-size:64px;font-style:normal;font-variant:normal;font-weight:900;font-stretch:normal;text-align:start;line-height:125%;letter-spacing:30px;word-spacing:0px;writing-mode:lr-tb;text-anchor:start;fill:#000000;fill-opacity:1;stroke:none;font-family:Ostrich Sans;-inkscape-font-specification:Ostrich Sans Heavy"
         id="path4751"
         inkscape:connector-curvature="0" />
    </clipPath>
    <clipPath
       clipPathUnits="userSpaceOnUse"
       id="clipPath4766">
      <path
         d="m 227.59409,523.86208 -23.28566,0 0,-52.94816 6.81886,0 0,46.19494 16.4668,0 0,6.75322 0,0 0,0"
         style="font-size:64px;font-style:normal;font-variant:normal;font-weight:900;font-stretch:normal;text-align:start;line-height:125%;letter-spacing:30px;word-spacing:0px;writing-mode:lr-tb;text-anchor:start;fill:#000000;fill-opacity:1;stroke:none;font-family:Ostrich Sans;-inkscape-font-specification:Ostrich Sans Heavy"
         id="path4768"
         inkscape:connector-curvature="0" />
    </clipPath>
    <clipPath
       clipPathUnits="userSpaceOnUse"
       id="clipPath4783">
      <path
         d="m 286.58105,470.98819 7.76571,0 -15.17189,27.2082 0,25.56139 -6.75904,0 0,-25.56139 -15.1,-27.2082 7.76572,0 10.71379,19.33214 10.78571,-19.33214 0,0"
         style="font-size:64px;font-style:normal;font-variant:normal;font-weight:900;font-stretch:normal;text-align:start;line-height:125%;letter-spacing:30px;word-spacing:0px;writing-mode:lr-tb;text-anchor:start;fill:#000000;fill-opacity:1;stroke:none;font-family:Ostrich Sans;-inkscape-font-specification:Ostrich Sans Heavy"
         id="path4785"
         inkscape:connector-curvature="0" />
    </clipPath>
    <clipPath
       clipPathUnits="userSpaceOnUse"
       id="clipPath4800">
      <path
         d="m 347.54798,497.67641 c 1.2726,1.2453 2.23885,2.73004 2.89875,4.45426 0.70699,1.72424 1.0605,3.68794 1.06052,5.8911 l 0,15.66174 -6.71662,0 0,-15.66174 c -2e-5,-4.64581 -2.21532,-6.96873 -6.64592,-6.96875 l -3.32295,0 -0.84842,0 0,22.63049 -6.64593,0 0,-52.94817 10.8173,0 c 4.47773,6e-5 7.84782,1.34113 10.11028,4.02321 2.07388,2.44269 3.11084,6.13062 3.11086,11.0638 -2e-5,4.88533 -1.03698,8.5972 -3.11086,11.13563 -0.0944,0.0958 -0.21212,0.21555 -0.35351,0.35922 -0.0943,0.14369 -0.21213,0.26344 -0.3535,0.35921 m -9.40327,-3.44846 c 1.79108,4e-5 3.01656,-0.2155 3.67646,-0.64659 0.70701,-0.43101 1.15479,-0.76629 1.34332,-1.00579 1.03695,-1.34104 1.55542,-3.59211 1.55544,-6.75322 -2e-5,-1.77209 -0.14143,-3.18501 -0.42422,-4.23875 -0.28282,-1.10153 -0.70701,-1.9397 -1.27262,-2.51448 -0.5185,-0.62261 -1.20193,-1.0297 -2.05033,-1.22134 -0.80129,-0.19154 -1.74399,-0.28732 -2.82805,-0.28737 l -4.17137,0 0,16.66754 0.84842,0 3.32295,0"
         style="font-size:64px;font-style:normal;font-variant:normal;font-weight:900;font-stretch:normal;text-align:start;line-height:125%;letter-spacing:30px;word-spacing:0px;writing-mode:lr-tb;text-anchor:start;fill:#000000;fill-opacity:1;stroke:none;font-family:Ostrich Sans;-inkscape-font-specification:Ostrich Sans Heavy"
         id="path4802"
         inkscape:connector-curvature="0" />
    </clipPath>
    <clipPath
       clipPathUnits="userSpaceOnUse"
       id="clipPath4847">
      <path
         d="m 475.76133,523.86208 -7.67753,0 -11.94282,-21.7697 -2.77243,4.39719 0,17.37251 -6.68229,0 0,-19.24672 -0.0711,0 0.0711,-0.14417 0,-33.73585 6.68229,0 0,23.21142 14.85742,-23.21142 8.03297,0 -15.92375,24.86938 15.42614,28.25736 0,0"
         style="font-size:64px;font-style:normal;font-variant:normal;font-weight:900;font-stretch:normal;text-align:start;line-height:125%;letter-spacing:30px;word-spacing:0px;writing-mode:lr-tb;text-anchor:start;fill:#000000;fill-opacity:1;stroke:none;font-family:Ostrich Sans;-inkscape-font-specification:Ostrich Sans Heavy"
         id="path4849"
         inkscape:connector-curvature="0" />
    </clipPath>
    <clipPath
       clipPathUnits="userSpaceOnUse"
       id="clipPath4852">
      <path
         inkscape:connector-curvature="0"
         id="path4854"
         style="font-size:64px;font-style:normal;font-variant:normal;font-weight:900;font-stretch:normal;text-align:start;line-height:125%;letter-spacing:30px;word-spacing:0px;writing-mode:lr-tb;text-anchor:start;fill:#000000;fill-opacity:1;stroke:none;font-family:Ostrich Sans;-inkscape-font-specification:Ostrich Sans Heavy"
         d="m 399.79903,523.68351 c -2.55009,0 -4.59496,-0.45347 -6.13464,-1.36041 -1.53967,-0.90694 -2.69443,-1.83775 -3.46426,-2.79242 -2.02082,-2.57761 -3.03124,-6.20537 -3.03124,-10.88328 l 0,-22.69737 c 0,-4.67787 1.01042,-8.30562 3.03124,-10.88328 0.38491,-0.47728 0.842,-0.95463 1.37127,-1.43201 0.57738,-0.47729 1.25098,-0.90688 2.02082,-1.28881 0.81795,-0.42955 1.73213,-0.76369 2.74255,-1.00241 1.01039,-0.28634 2.16515,-0.42955 3.46426,-0.4296 2.5982,5e-5 4.64306,0.45353 6.13464,1.36041 1.53966,0.90698 2.69441,1.83779 3.46427,2.79242 2.0208,2.57766 3.03122,6.20541 3.03124,10.88328 l 0,22.69737 c -2e-5,4.67791 -1.01044,8.30567 -3.03124,10.88328 -0.76986,0.95467 -1.92461,1.88548 -3.46427,2.79242 -1.49158,0.90694 -3.53644,1.36041 -6.13464,1.36041 m 0,-45.96754 c -0.52926,5e-5 -1.13071,0.0478 -1.8043,0.1432 -0.6255,0.0955 -1.25099,0.40578 -1.87648,0.93081 -0.6255,0.47738 -1.15477,1.28885 -1.58779,2.43441 -0.38493,1.09792 -0.57738,2.67313 -0.57737,4.72564 l 0,22.69737 c -10e-6,2.10029 0.19244,3.72323 0.57737,4.86883 0.43302,1.09789 0.96229,1.90935 1.58779,2.43443 0.62549,0.47733 1.25098,0.76374 1.87648,0.85921 0.67359,0.0954 1.27504,0.1432 1.8043,0.14319 0.48114,10e-6 1.05851,-0.0479 1.73214,-0.14319 0.67359,-0.0954 1.32314,-0.38188 1.94864,-0.85921 0.62549,-0.52508 1.13069,-1.33654 1.51563,-2.43443 0.43301,-1.1456 0.64952,-2.76854 0.64954,-4.86883 l 0,-22.69737 c -2e-5,-2.05251 -0.21653,-3.62772 -0.64954,-4.72564 -0.38494,-1.14556 -0.89014,-1.95703 -1.51563,-2.43441 -0.6255,-0.52503 -1.27505,-0.8353 -1.94864,-0.93081 -0.67363,-0.0954 -1.251,-0.14315 -1.73214,-0.1432" />
    </clipPath>
  </defs>
  <sodipodi:namedview
     id="base"
     pagecolor="#ffffff"
     bordercolor="#666666"
     borderopacity="1.0"
     inkscape:pageopacity="0.0"
     inkscape:pageshadow="2"
     inkscape:zoom="1.979899"
     inkscape:cx="373.40564"
     inkscape:cy="541.19925"
     inkscape:document-units="px"
     inkscape:current-layer="layer2"
     showgrid="false"
     inkscape:window-width="1278"
     inkscape:window-height="746"
     inkscape:window-x="0"
     inkscape:window-y="26"
     inkscape:window-maximized="0" />
  <metadata
     id="metadata7">
    <rdf:RDF>
      <cc:Work
         rdf:about="">
        <dc:format>image/svg+xml</dc:format>
        <dc:type
           rdf:resource="http://purl.org/dc/dcmitype/StillImage" />
        <dc:title />
      </cc:Work>
    </rdf:RDF>
  </metadata>
  <g
     inkscape:groupmode="layer"
     id="layer2"
     inkscape:label="scenery">
    <rect
       style="fill:#ffffff;stroke:#000000;stroke-width:3;stroke-linejoin:miter;stroke-miterlimit:4;stroke-opacity:1;stroke-dasharray:none;fill-opacity:1"
       id="rect4734"
       width="362.64478"
       height="80.812202"
       x="127.78429"
       y="456.37219"
       inkscape:export-filename="/home/joe/Code/flyrock/logo.png"
       inkscape:export-xdpi="196.51007"
       inkscape:export-ydpi="196.51007" />
    <path
       style="fill:#000000;fill-opacity:1;stroke:#000000;stroke-width:1px;stroke-linecap:butt;stroke-linejoin:miter;stroke-opacity:1"
       d="m 88.571429,333.79075 -1.428572,212.85715 583.664243,0.31689 0.69326,-231.91878 -12.92893,24.45903 -62.85714,50 -41.42858,14.28571 -57.14285,-21.42857 -48.57143,-51.42857 -74.28572,40 -30,8.57143 L 300,372.36218 287.14286,410.93361 225.71429,458.07647 182.85714,455.21933 144.28571,418.07647 130,380.93361 z"
       id="path2985"
       inkscape:connector-curvature="0"
       sodipodi:nodetypes="cccccccccccccccccc"
       clip-path="url(#clipPath4080)"
       transform="translate(-0.50507627,-48.487322)" />
    <rect
       style="fill:#ffffff;fill-opacity:1;stroke:#000000;stroke-width:2.76007652;stroke-linejoin:miter;stroke-miterlimit:4;stroke-opacity:1;stroke-dasharray:none"
       id="rect4734-2"
       width="352.79037"
       height="70.313934"
       x="132.20642"
       y="461.43817"
       inkscape:export-filename="/home/joe/Code/flyrock/logo.png"
       inkscape:export-xdpi="196.51007"
       inkscape:export-ydpi="196.51007" />
    <path
       style="fill:#d82095;fill-opacity:1;stroke:none"
       d="m 143.44167,468.99908 40.91117,0 0,56.56855 -40.91117,0 z"
       id="rect3861"
       clip-path="url(#clipPath4749)"
       inkscape:connector-curvature="0"
       inkscape:export-filename="/home/joe/Code/flyrock/logo.png"
       inkscape:export-xdpi="196.51007"
       inkscape:export-ydpi="196.51007" />
    <path
       style="fill:#99df19;fill-opacity:1;stroke:none"
       d="m 202.23254,468.99908 40.91118,0 0,56.56855 -40.91118,0 z"
       id="rect4371"
       clip-path="url(#clipPath4766)"
       inkscape:connector-curvature="0"
       inkscape:export-filename="/home/joe/Code/flyrock/logo.png"
       inkscape:export-xdpi="196.51007"
       inkscape:export-ydpi="196.51007" />
    <path
       style="fill:#0cc4ec;fill-opacity:1;stroke:none"
       d="m 257.02341,468.99908 40.91118,0 0,56.56855 -40.91118,0 z"
       id="rect4373"
       inkscape:connector-curvature="0"
       clip-path="url(#clipPath4783)"
       transform="translate(-0.1785714,1.7394996e-8)"
       inkscape:export-filename="/home/joe/Code/flyrock/logo.png"
       inkscape:export-xdpi="196.51007"
       inkscape:export-ydpi="196.51007" />
    <path
       style="fill:#fa611e;fill-opacity:1;stroke:none"
       d="m 319.8143,468.99908 40.91118,0 0,56.56855 -40.91118,0 z"
       id="rect4375"
       clip-path="url(#clipPath4800)"
       inkscape:connector-curvature="0"
       transform="translate(-2.3330932e-8,0.17857144)"
       inkscape:export-filename="/home/joe/Code/flyrock/logo.png"
       inkscape:export-xdpi="196.51007"
       inkscape:export-ydpi="196.51007" />
    <path
       style="fill:#710bf6;fill-opacity:1;stroke:none"
       d="m 378.60519,468.99908 40.91118,0 0,56.56855 -40.91118,0 z"
       id="rect4377"
       clip-path="url(#clipPath4852)"
       inkscape:connector-curvature="0"
       transform="translate(0.17857117,-0.17857142)"
       inkscape:export-filename="/home/joe/Code/flyrock/logo.png"
       inkscape:export-xdpi="196.51007"
       inkscape:export-ydpi="196.51007" />
    <rect
       y="468.99908"
       x="437.39606"
       height="56.568542"
       width="40.911179"
       id="rect4379"
       style="fill:#dcc20d;fill-opacity:1;stroke:none"
       clip-path="url(#clipPath4847)"
       transform="translate(4.8114593e-7,-0.17857145)"
       inkscape:export-filename="/home/joe/Code/flyrock/logo.png"
       inkscape:export-xdpi="196.51007"
       inkscape:export-ydpi="196.51007" />
  </g>
  <g
     inkscape:label="words"
     inkscape:groupmode="layer"
     id="layer1"
     style="opacity:1;display:inline"
     sodipodi:insensitive="true">
    <g
       id="g4086"
       transform="translate(-0.50507627,-48.487322)">
      <path
         d="m 233.57143,601.29077 c 0,8.08703 -6.55583,14.64286 -14.64286,14.64286 -8.08702,0 -14.64285,-6.55583 -14.64285,-14.64286 0,-8.08703 6.55583,-14.64286 14.64285,-14.64286 8.08703,0 14.64286,6.55583 14.64286,14.64286 z"
         sodipodi:ry="14.642858"
         sodipodi:rx="14.642858"
         sodipodi:cy="601.29077"
         sodipodi:cx="218.92857"
         id="path3779"
         style="fill:#000000;fill-opacity:1;stroke:none"
         sodipodi:type="arc"
         transform="translate(170.80855,-158.13167)" />
      <path
         transform="matrix(0.70731708,0,0,0.70731708,234.8852,17.85588)"
         sodipodi:type="arc"
         style="fill:#710bf6;fill-opacity:1;stroke:none"
         id="path3781"
         sodipodi:cx="218.92857"
         sodipodi:cy="601.29077"
         sodipodi:rx="14.642858"
         sodipodi:ry="14.642858"
         d="m 233.57143,601.29077 c 0,8.08703 -6.55583,14.64286 -14.64286,14.64286 -8.08702,0 -14.64285,-6.55583 -14.64285,-14.64286 0,-8.08703 6.55583,-14.64286 14.64285,-14.64286 8.08703,0 14.64286,6.55583 14.64286,14.64286 z" />
    </g>
    <g
       id="g3864"
       transform="translate(-49.982246,-206.61899)">
      <path
         d="m 233.57143,601.29077 c 0,8.08703 -6.55583,14.64286 -14.64286,14.64286 -8.08702,0 -14.64285,-6.55583 -14.64285,-14.64286 0,-8.08703 6.55583,-14.64286 14.64285,-14.64286 8.08703,0 14.64286,6.55583 14.64286,14.64286 z"
         sodipodi:ry="14.642858"
         sodipodi:rx="14.642858"
         sodipodi:cy="601.29077"
         sodipodi:cx="218.92857"
         id="path3755"
         style="fill:#000000;fill-opacity:1;stroke:none"
         sodipodi:type="arc" />
      <path
         transform="matrix(0.70731708,0,0,0.70731708,64.076654,175.98754)"
         sodipodi:type="arc"
         style="fill:#d82095;fill-opacity:1;stroke:none"
         id="path3765"
         sodipodi:cx="218.92857"
         sodipodi:cy="601.29077"
         sodipodi:rx="14.642858"
         sodipodi:ry="14.642858"
         d="m 233.57143,601.29077 c 0,8.08703 -6.55583,14.64286 -14.64286,14.64286 -8.08702,0 -14.64285,-6.55583 -14.64285,-14.64286 0,-8.08703 6.55583,-14.64286 14.64285,-14.64286 8.08703,0 14.64286,6.55583 14.64286,14.64286 z" />
    </g>
    <g
       id="g3875"
       transform="translate(-60.267951,-205.19042)">
      <path
         transform="translate(62.857143,-1.4285714)"
         sodipodi:type="arc"
         style="fill:#000000;fill-opacity:1;stroke:none"
         id="path3767"
         sodipodi:cx="218.92857"
         sodipodi:cy="601.29077"
         sodipodi:rx="14.642858"
         sodipodi:ry="14.642858"
         d="m 233.57143,601.29077 c 0,8.08703 -6.55583,14.64286 -14.64286,14.64286 -8.08702,0 -14.64285,-6.55583 -14.64285,-14.64286 0,-8.08703 6.55583,-14.64286 14.64285,-14.64286 8.08703,0 14.64286,6.55583 14.64286,14.64286 z" />
      <g
         id="g3868">
        <path
           transform="matrix(0.70731708,0,0,0.70731708,126.9338,174.55897)"
           sodipodi:type="arc"
           style="fill:#99df19;fill-opacity:1;stroke:none"
           id="path3769"
           sodipodi:cx="218.92857"
           sodipodi:cy="601.29077"
           sodipodi:rx="14.642858"
           sodipodi:ry="14.642858"
           d="m 233.57143,601.29077 c 0,8.08703 -6.55583,14.64286 -14.64286,14.64286 -8.08702,0 -14.64285,-6.55583 -14.64285,-14.64286 0,-8.08703 6.55583,-14.64286 14.64285,-14.64286 8.08703,0 14.64286,6.55583 14.64286,14.64286 z" />
      </g>
    </g>
    <g
       id="g3871"
       transform="translate(-52.982246,-207.33328)">
      <path
         d="m 233.57143,601.29077 c 0,8.08703 -6.55583,14.64286 -14.64286,14.64286 -8.08702,0 -14.64285,-6.55583 -14.64285,-14.64286 0,-8.08703 6.55583,-14.64286 14.64285,-14.64286 8.08703,0 14.64286,6.55583 14.64286,14.64286 z"
         sodipodi:ry="14.642858"
         sodipodi:rx="14.642858"
         sodipodi:cy="601.29077"
         sodipodi:cx="218.92857"
         id="path3771"
         style="fill:#000000;fill-opacity:1;stroke:none"
         sodipodi:type="arc"
         transform="translate(112.14286,0.71428575)" />
      <path
         transform="matrix(0.70731708,0,0,0.70731708,176.21951,176.70183)"
         sodipodi:type="arc"
         style="fill:#0cc4ec;fill-opacity:1;stroke:none"
         id="path3773"
         sodipodi:cx="218.92857"
         sodipodi:cy="601.29077"
         sodipodi:rx="14.642858"
         sodipodi:ry="14.642858"
         d="m 233.57143,601.29077 c 0,8.08703 -6.55583,14.64286 -14.64286,14.64286 -8.08702,0 -14.64285,-6.55583 -14.64285,-14.64286 0,-8.08703 6.55583,-14.64286 14.64285,-14.64286 8.08703,0 14.64286,6.55583 14.64286,14.64286 z" />
    </g>
    <g
       id="g3880"
       transform="translate(-57.125098,-208.04756)">
      <path
         transform="translate(172.85715,1.4285715)"
         sodipodi:type="arc"
         style="fill:#000000;fill-opacity:1;stroke:none"
         id="path3775"
         sodipodi:cx="218.92857"
         sodipodi:cy="601.29077"
         sodipodi:rx="14.642858"
         sodipodi:ry="14.642858"
         d="m 233.57143,601.29077 c 0,8.08703 -6.55583,14.64286 -14.64286,14.64286 -8.08702,0 -14.64285,-6.55583 -14.64285,-14.64286 0,-8.08703 6.55583,-14.64286 14.64285,-14.64286 8.08703,0 14.64286,6.55583 14.64286,14.64286 z" />
      <path
         d="m 233.57143,601.29077 c 0,8.08703 -6.55583,14.64286 -14.64286,14.64286 -8.08702,0 -14.64285,-6.55583 -14.64285,-14.64286 0,-8.08703 6.55583,-14.64286 14.64285,-14.64286 8.08703,0 14.64286,6.55583 14.64286,14.64286 z"
         sodipodi:ry="14.642858"
         sodipodi:rx="14.642858"
         sodipodi:cy="601.29077"
         sodipodi:cx="218.92857"
         id="path3777"
         style="fill:#fa611e;fill-opacity:1;stroke:none"
         sodipodi:type="arc"
         transform="matrix(0.70731708,0,0,0.70731708,236.9338,177.41612)" />
    </g>
    <g
       id="g3888"
       transform="translate(-47.982215,-210.19042)">
      <path
         transform="translate(272.85715,3.5714286)"
         sodipodi:type="arc"
         style="fill:#000000;fill-opacity:1;stroke:none"
         id="path3783"
         sodipodi:cx="218.92857"
         sodipodi:cy="601.29077"
         sodipodi:rx="14.642858"
         sodipodi:ry="14.642858"
         d="m 233.57143,601.29077 c 0,8.08703 -6.55583,14.64286 -14.64286,14.64286 -8.08702,0 -14.64285,-6.55583 -14.64285,-14.64286 0,-8.08703 6.55583,-14.64286 14.64285,-14.64286 8.08703,0 14.64286,6.55583 14.64286,14.64286 z" />
      <path
         d="m 233.57143,601.29077 c 0,8.08703 -6.55583,14.64286 -14.64286,14.64286 -8.08702,0 -14.64285,-6.55583 -14.64285,-14.64286 0,-8.08703 6.55583,-14.64286 14.64285,-14.64286 8.08703,0 14.64286,6.55583 14.64286,14.64286 z"
         sodipodi:ry="14.642858"
         sodipodi:rx="14.642858"
         sodipodi:cy="601.29077"
         sodipodi:cx="218.92857"
         id="path3785"
         style="fill:#dcc20d;fill-opacity:1;stroke:none"
         sodipodi:type="arc"
         transform="matrix(0.70731708,0,0,0.70731708,336.9338,179.55898)" />
    </g>
    <flowRoot
       transform="translate(22.648732,238.99554)"
       xml:space="preserve"
       id="flowRoot4044"
       style="font-size:64px;font-style:normal;font-variant:normal;font-weight:500;font-stretch:normal;text-align:start;line-height:125%;letter-spacing:10px;word-spacing:0px;writing-mode:lr-tb;text-anchor:start;fill:#000000;fill-opacity:1;stroke:none;font-family:Ostrich Sans Rounded;-inkscape-font-specification:Ostrich Sans Rounded Medium"><flowRegion
         id="flowRegion4046"><rect
           style="font-size:64px;font-style:normal;font-variant:normal;font-weight:500;font-stretch:normal;text-align:start;line-height:125%;letter-spacing:10px;writing-mode:lr-tb;text-anchor:start;font-family:Ostrich Sans Rounded;-inkscape-font-specification:Ostrich Sans Rounded Medium"
           id="rect4048"
           width="377.60336"
           height="244.22774"
           x="125"
           y="217.36218" /></flowRegion><flowPara
         style="font-size:72px;font-style:normal;font-variant:normal;font-weight:bold;font-stretch:normal;text-align:start;line-height:125%;letter-spacing:30px;writing-mode:lr-tb;text-anchor:start;font-family:Ostrich Sans;-inkscape-font-specification:Ostrich Sans Bold"
         id="flowPara4050">FLYROK</flowPara><flowPara
         id="flowPara4052"
         style="font-size:64px;font-style:normal;font-variant:normal;font-weight:500;font-stretch:normal;text-align:start;line-height:125%;letter-spacing:10px;writing-mode:lr-tb;text-anchor:start;font-family:Ostrich Sans Rounded;-inkscape-font-specification:Ostrich Sans Rounded Medium" /></flowRoot>    <flowRoot
       style="font-size:64px;font-style:normal;font-variant:normal;font-weight:500;font-stretch:normal;text-align:start;line-height:125%;letter-spacing:10px;word-spacing:0px;writing-mode:lr-tb;text-anchor:start;fill:#000000;fill-opacity:1;stroke:none;font-family:Ostrich Sans Rounded;-inkscape-font-specification:Ostrich Sans Rounded Medium"
       id="flowRoot4090"
       xml:space="preserve"
       transform="translate(32.678829,385.20814)"><flowRegion
         id="flowRegion4092"><rect
           y="217.36218"
           x="125"
           height="244.22774"
           width="377.60336"
           id="rect4094"
           style="font-size:64px;font-style:normal;font-variant:normal;font-weight:500;font-stretch:normal;text-align:start;line-height:125%;letter-spacing:10px;writing-mode:lr-tb;text-anchor:start;font-family:Ostrich Sans Rounded;-inkscape-font-specification:Ostrich Sans Rounded Medium" /></flowRegion><flowPara
         id="flowPara4096"
         style="font-size:72px;font-style:normal;font-variant:normal;font-weight:500;font-stretch:normal;text-align:start;line-height:125%;letter-spacing:30px;writing-mode:lr-tb;text-anchor:start;font-family:Ostrich Sans Rounded;-inkscape-font-specification:Ostrich Sans Rounded Medium">biscit</flowPara><flowPara
         style="font-size:64px;font-style:normal;font-variant:normal;font-weight:500;font-stretch:normal;text-align:start;line-height:125%;letter-spacing:10px;writing-mode:lr-tb;text-anchor:start;font-family:Ostrich Sans Rounded;-inkscape-font-specification:Ostrich Sans Rounded Medium"
         id="flowPara4098" /></flowRoot>    <text
       xml:space="preserve"
       style="font-size:40px;font-style:normal;font-weight:normal;line-height:125%;letter-spacing:0px;word-spacing:0px;fill:#000000;fill-opacity:1;stroke:none;font-family:Sans"
       x="153.03812"
       y="572.03467"
       id="text4100"
       sodipodi:linespacing="125%"><tspan
         sodipodi:role="line"
         id="tspan4102"
         x="153.03812"
         y="572.03467" /></text>
    <flowRoot
       transform="translate(30.45403,313.27238)"
       xml:space="preserve"
       id="flowRoot4104"
       style="font-size:64px;font-style:normal;font-variant:normal;font-weight:500;font-stretch:normal;text-align:start;line-height:125%;letter-spacing:10px;word-spacing:0px;writing-mode:lr-tb;text-anchor:start;fill:#000000;fill-opacity:1;stroke:none;font-family:Ostrich Sans Rounded;-inkscape-font-specification:Ostrich Sans Rounded Medium"><flowRegion
         id="flowRegion4106"><rect
           style="font-size:64px;font-style:normal;font-variant:normal;font-weight:500;font-stretch:normal;text-align:start;line-height:125%;letter-spacing:10px;writing-mode:lr-tb;text-anchor:start;font-family:Ostrich Sans Rounded;-inkscape-font-specification:Ostrich Sans Rounded Medium"
           id="rect4108"
           width="377.60336"
           height="244.22774"
           x="125"
           y="217.36218" /></flowRegion><flowPara
         style="font-size:72px;font-style:normal;font-variant:normal;font-weight:500;font-stretch:normal;text-align:start;line-height:125%;letter-spacing:30px;writing-mode:lr-tb;text-anchor:start;font-family:Ostrich Sans Rounded;-inkscape-font-specification:Ostrich Sans Rounded Medium"
         id="flowPara4110" /><flowPara
         id="flowPara4112"
         style="font-size:64px;font-style:normal;font-variant:normal;font-weight:500;font-stretch:normal;text-align:start;line-height:125%;letter-spacing:10px;writing-mode:lr-tb;text-anchor:start;font-family:Ostrich Sans Rounded;-inkscape-font-specification:Ostrich Sans Rounded Medium" /></flowRoot>    <flowRoot
       xml:space="preserve"
       id="flowRoot4114"
       style="font-size:40px;font-style:normal;font-weight:normal;line-height:125%;letter-spacing:0px;word-spacing:0px;fill:#000000;fill-opacity:1;stroke:none;font-family:Sans"><flowRegion
         id="flowRegion4116"><rect
           id="rect4118"
           width="321.73358"
           height="98.994949"
           x="168.1904"
           y="548.80115" /></flowRegion><flowPara
         id="flowPara4120" /></flowRoot>    <flowRoot
       style="font-size:64px;font-style:normal;font-variant:normal;font-weight:500;font-stretch:normal;text-align:start;line-height:125%;letter-spacing:10px;word-spacing:0px;writing-mode:lr-tb;text-anchor:start;fill:#000000;fill-opacity:1;stroke:none;font-family:Ostrich Sans Rounded;-inkscape-font-specification:Ostrich Sans Rounded Medium"
       id="flowRoot4122"
       xml:space="preserve"
       transform="translate(20.816971,323.87898)"><flowRegion
         id="flowRegion4124"><rect
           y="217.36218"
           x="125"
           height="244.22774"
           width="377.60336"
           id="rect4126"
           style="font-size:64px;font-style:normal;font-variant:normal;font-weight:500;font-stretch:normal;text-align:start;line-height:125%;letter-spacing:10px;writing-mode:lr-tb;text-anchor:start;font-family:Ostrich Sans Rounded;-inkscape-font-specification:Ostrich Sans Rounded Medium" /></flowRegion><flowPara
         id="flowPara4128"
         style="font-size:72px;font-style:normal;font-variant:normal;font-weight:500;font-stretch:normal;text-align:start;line-height:125%;letter-spacing:30px;writing-mode:lr-tb;text-anchor:start;font-family:Ostrich Sans;-inkscape-font-specification:Ostrich Sans Medium">tunnll</flowPara><flowPara
         style="font-size:64px;font-style:normal;font-variant:normal;font-weight:500;font-stretch:normal;text-align:start;line-height:125%;letter-spacing:10px;writing-mode:lr-tb;text-anchor:start;font-family:Ostrich Sans Rounded;-inkscape-font-specification:Ostrich Sans Rounded Medium"
         id="flowPara4130" /></flowRoot>    <text
       xml:space="preserve"
       style="font-size:40px;font-style:normal;font-weight:normal;line-height:125%;letter-spacing:0px;word-spacing:0px;fill:#000000;fill-opacity:1;stroke:none;font-family:Sans"
       x="-172.85715"
       y="222.36218"
       id="text3857"
       sodipodi:linespacing="125%"><tspan
         sodipodi:role="line"
         id="tspan3859"
         x="-172.85715"
         y="222.36218" /></text>
  </g>
</svg>
