<?xml version="1.0" encoding="UTF-8" standalone="no"?>
<!-- Created with Inkscape (http://www.inkscape.org/) -->

<svg
   xmlns:dc="http://purl.org/dc/elements/1.1/"
   xmlns:cc="http://creativecommons.org/ns#"
   xmlns:rdf="http://www.w3.org/1999/02/22-rdf-syntax-ns#"
   xmlns:svg="http://www.w3.org/2000/svg"
   xmlns="http://www.w3.org/2000/svg"
   xmlns:sodipodi="http://sodipodi.sourceforge.net/DTD/sodipodi-0.dtd"
   xmlns:inkscape="http://www.inkscape.org/namespaces/inkscape"
   width="744.09448819"
   height="1052.3622047"
   id="svg2"
   version="1.1"
   inkscape:version="0.48.1 r9760"
   sodipodi:docname="New document 1">
  <defs
     id="defs4" />
  <sodipodi:namedview
     id="base"
     pagecolor="#ffffff"
     bordercolor="#666666"
     borderopacity="1.0"
     inkscape:pageopacity="0.0"
     inkscape:pageshadow="2"
     inkscape:zoom="1.4"
     inkscape:cx="408.57143"
     inkscape:cy="520"
     inkscape:document-units="px"
     inkscape:current-layer="layer1"
     showgrid="false"
     inkscape:window-width="1440"
     inkscape:window-height="852"
     inkscape:window-x="0"
     inkscape:window-y="0"
     inkscape:window-maximized="0" />
  <metadata
     id="metadata7">
    <rdf:RDF>
      <cc:Work
         rdf:about="">
        <dc:format>image/svg+xml</dc:format>
        <dc:type
           rdf:resource="http://purl.org/dc/dcmitype/StillImage" />
        <dc:title></dc:title>
      </cc:Work>
    </rdf:RDF>
  </metadata>
  <g
     inkscape:label="Layer 1"
     inkscape:groupmode="layer"
     id="layer1">
    <path
       style="fill:#000000;stroke:#000000;stroke-width:1px;stroke-linecap:butt;stroke-linejoin:miter;stroke-opacity:1;fill-opacity:1"
       d="M 88.571429,333.79075 87.142857,546.6479 690,558.07647 l -11.42857,-240 -20,21.42857 -62.85714,50 -41.42858,14.28571 -57.14285,-21.42857 -48.57143,-51.42857 -74.28572,40 -30,8.57143 L 300,372.36218 287.14286,410.93361 225.71429,458.07647 182.85714,455.21933 144.28571,418.07647 130,380.93361 z"
       id="path2985"
       inkscape:connector-curvature="0" />
    <path
       sodipodi:type="arc"
       style="fill:#000000;fill-opacity:1;stroke:none"
       id="path3755"
       sodipodi:cx="218.92857"
       sodipodi:cy="601.29077"
       sodipodi:rx="14.642858"
       sodipodi:ry="14.642858"
       d="m 233.57143,601.29077 a 14.642858,14.642858 0 1 1 -29.28571,0 14.642858,14.642858 0 1 1 29.28571,0 z" />
    <path
       d="m 233.57143,601.29077 a 14.642858,14.642858 0 1 1 -29.28571,0 14.642858,14.642858 0 1 1 29.28571,0 z"
       sodipodi:ry="14.642858"
       sodipodi:rx="14.642858"
       sodipodi:cy="601.29077"
       sodipodi:cx="218.92857"
       id="path3765"
       style="fill:#d82095;fill-opacity:1;stroke:none"
       sodipodi:type="arc"
       transform="matrix(0.70731708,0,0,0.70731708,64.076654,175.98754)" />
    <path
       d="m 233.57143,601.29077 a 14.642858,14.642858 0 1 1 -29.28571,0 14.642858,14.642858 0 1 1 29.28571,0 z"
       sodipodi:ry="14.642858"
       sodipodi:rx="14.642858"
       sodipodi:cy="601.29077"
       sodipodi:cx="218.92857"
       id="path3767"
       style="fill:#000000;fill-opacity:1;stroke:none"
       sodipodi:type="arc"
       transform="translate(62.857143,-1.4285714)" />
    <path
       transform="matrix(0.70731708,0,0,0.70731708,126.9338,174.55897)"
       sodipodi:type="arc"
       style="fill:#99df19;fill-opacity:1;stroke:none"
       id="path3769"
       sodipodi:cx="218.92857"
       sodipodi:cy="601.29077"
       sodipodi:rx="14.642858"
       sodipodi:ry="14.642858"
       d="m 233.57143,601.29077 a 14.642858,14.642858 0 1 1 -29.28571,0 14.642858,14.642858 0 1 1 29.28571,0 z" />
    <path
       transform="translate(112.14286,0.71428575)"
       sodipodi:type="arc"
       style="fill:#000000;fill-opacity:1;stroke:none"
       id="path3771"
       sodipodi:cx="218.92857"
       sodipodi:cy="601.29077"
       sodipodi:rx="14.642858"
       sodipodi:ry="14.642858"
       d="m 233.57143,601.29077 a 14.642858,14.642858 0 1 1 -29.28571,0 14.642858,14.642858 0 1 1 29.28571,0 z" />
    <path
       d="m 233.57143,601.29077 a 14.642858,14.642858 0 1 1 -29.28571,0 14.642858,14.642858 0 1 1 29.28571,0 z"
       sodipodi:ry="14.642858"
       sodipodi:rx="14.642858"
       sodipodi:cy="601.29077"
       sodipodi:cx="218.92857"
       id="path3773"
       style="fill:#0cc4ec;fill-opacity:1;stroke:none"
       sodipodi:type="arc"
       transform="matrix(0.70731708,0,0,0.70731708,176.21951,176.70183)" />
    <path
       d="m 233.57143,601.29077 a 14.642858,14.642858 0 1 1 -29.28571,0 14.642858,14.642858 0 1 1 29.28571,0 z"
       sodipodi:ry="14.642858"
       sodipodi:rx="14.642858"
       sodipodi:cy="601.29077"
       sodipodi:cx="218.92857"
       id="path3775"
       style="fill:#000000;fill-opacity:1;stroke:none"
       sodipodi:type="arc"
       transform="translate(172.85715,1.4285715)" />
    <path
       transform="matrix(0.70731708,0,0,0.70731708,236.9338,177.41612)"
       sodipodi:type="arc"
       style="fill:#fa611e;fill-opacity:1;stroke:none"
       id="path3777"
       sodipodi:cx="218.92857"
       sodipodi:cy="601.29077"
       sodipodi:rx="14.642858"
       sodipodi:ry="14.642858"
       d="m 233.57143,601.29077 a 14.642858,14.642858 0 1 1 -29.28571,0 14.642858,14.642858 0 1 1 29.28571,0 z" />
    <path
       transform="translate(219.28572,3.5714286)"
       sodipodi:type="arc"
       style="fill:#000000;fill-opacity:1;stroke:none"
       id="path3779"
       sodipodi:cx="218.92857"
       sodipodi:cy="601.29077"
       sodipodi:rx="14.642858"
       sodipodi:ry="14.642858"
       d="m 233.57143,601.29077 a 14.642858,14.642858 0 1 1 -29.28571,0 14.642858,14.642858 0 1 1 29.28571,0 z" />
    <path
       d="m 233.57143,601.29077 a 14.642858,14.642858 0 1 1 -29.28571,0 14.642858,14.642858 0 1 1 29.28571,0 z"
       sodipodi:ry="14.642858"
       sodipodi:rx="14.642858"
       sodipodi:cy="601.29077"
       sodipodi:cx="218.92857"
       id="path3781"
       style="fill:#4e0bf6;fill-opacity:1;stroke:none"
       sodipodi:type="arc"
       transform="matrix(0.70731708,0,0,0.70731708,283.36237,179.55898)" />
    <path
       d="m 233.57143,601.29077 a 14.642858,14.642858 0 1 1 -29.28571,0 14.642858,14.642858 0 1 1 29.28571,0 z"
       sodipodi:ry="14.642858"
       sodipodi:rx="14.642858"
       sodipodi:cy="601.29077"
       sodipodi:cx="218.92857"
       id="path3783"
       style="fill:#000000;fill-opacity:1;stroke:none"
       sodipodi:type="arc"
       transform="translate(272.85715,3.5714286)" />
    <path
       transform="matrix(0.70731708,0,0,0.70731708,336.9338,179.55898)"
       sodipodi:type="arc"
       style="fill:#dcc20d;fill-opacity:1;stroke:none"
       id="path3785"
       sodipodi:cx="218.92857"
       sodipodi:cy="601.29077"
       sodipodi:rx="14.642858"
       sodipodi:ry="14.642858"
       d="m 233.57143,601.29077 a 14.642858,14.642858 0 1 1 -29.28571,0 14.642858,14.642858 0 1 1 29.28571,0 z" />
  </g>
</svg>
